<svg xmlns="http://www.w3.org/2000/svg" xmlns:xlink="http://www.w3.org/1999/xlink" width="500" zoomAndPan="magnify" viewBox="0 0 375 374.999991" height="500" preserveAspectRatio="xMidYMid meet" version="1.0"><defs><clipPath id="3bd9430d93"><path d="M 105.632812 133.113281 L 243 133.113281 L 243 191 L 105.632812 191 Z M 105.632812 133.113281 " clip-rule="nonzero"/></clipPath><clipPath id="b7d25194d8"><path d="M 226 192 L 243.632812 192 L 243.632812 201 L 226 201 Z M 226 192 " clip-rule="nonzero"/></clipPath></defs><g clip-path="url(#3bd9430d93)"><path fill="#1565c0" d="M 200.300781 173.007812 C 191.933594 171.671875 183.976562 168.386719 181.496094 159.804688 C 179.988281 154.585938 178.945312 145 184.496094 141.609375 C 188.914062 138.910156 195.234375 139.605469 200.167969 139.59375 C 208.429688 139.574219 216.6875 140.78125 224.59375 143.167969 C 228.519531 144.351562 231.722656 145.4375 234.445312 147.71875 C 235.023438 148.203125 236.269531 149.363281 237.503906 151.117188 C 239.847656 154.449219 240.761719 158.035156 241.148438 160.378906 C 241.226562 162.203125 241.335938 166.261719 239.3125 169.8125 C 238.789062 170.722656 238.167969 171.550781 237.253906 172.226562 C 235.789062 173.308594 233.972656 173.707031 231.84375 173.769531 C 221.519531 174.078125 210.53125 174.640625 200.300781 173.007812 Z M 239.5 187.367188 C 241.433594 185.453125 241.878906 182.890625 242.136719 178.859375 C 242.761719 169.003906 241.746094 161.273438 241.300781 159.699219 C 241.132812 158.347656 240.855469 156.617188 240.410156 154.589844 C 239.632812 151.070312 238.066406 147.167969 237.191406 144.246094 C 235.183594 137.519531 219.054688 136.488281 212.960938 135.414062 C 200.636719 133.246094 191.425781 133.113281 187.351562 133.144531 C 182.515625 133.183594 179.53125 133.484375 177.300781 133.792969 C 171.671875 134.574219 167.242188 135.910156 163.035156 137.359375 C 151.484375 141.34375 142.554688 145.90625 140.769531 146.804688 C 118.523438 158.03125 105.757812 166.136719 105.980469 166.535156 C 106.183594 166.898438 116.644531 159.796875 131.914062 158.433594 C 135.179688 158.140625 142.925781 157.449219 143.910156 160.050781 C 145.308594 163.75 132.179688 171.695312 131.589844 172.046875 C 124.296875 176.410156 117.726562 178.113281 115.890625 178.464844 C 119.175781 178.152344 137.628906 176.582031 149.097656 163.941406 C 151.628906 161.148438 154.785156 156.757812 158.820312 157.136719 C 160.730469 157.3125 162.410156 158.527344 166.601562 163.941406 C 173.140625 172.390625 175.921875 178.390625 176.328125 178.207031 C 176.800781 177.992188 174.578125 169.207031 168.546875 160.375 C 164.210938 154.027344 159.320312 149.734375 155.753906 147.050781 C 158.058594 145.902344 161.410156 144.550781 165.628906 143.84375 C 168.347656 143.390625 170.796875 143.308594 172.839844 143.394531 C 171.613281 143.910156 170.753906 145.121094 170.753906 146.535156 L 170.753906 159.910156 C 170.753906 161.789062 172.277344 163.316406 174.15625 163.316406 C 175.15625 163.316406 176.054688 162.882812 176.675781 162.199219 C 177.09375 165.910156 177.527344 169.621094 177.976562 173.328125 C 178.488281 177.546875 179.019531 181.769531 179.570312 185.984375 C 180.085938 189.988281 199.5 189.59375 202.1875 189.714844 C 212.074219 190.144531 221.984375 190.140625 231.871094 189.699219 C 235.722656 189.527344 238.042969 188.8125 239.5 187.367188 " fill-opacity="1" fill-rule="nonzero"/></g><path fill="#1565c0" d="M 115.382812 178.53125 C 115.386719 178.546875 115.566406 178.527344 115.890625 178.464844 C 115.554688 178.496094 115.378906 178.515625 115.382812 178.53125 " fill-opacity="1" fill-rule="nonzero"/><path fill="#1565c0" d="M 201.019531 194.371094 C 200.878906 193.941406 200.484375 193.644531 200.035156 193.617188 C 194.59375 193.320312 189.445312 192.855469 184.621094 192.273438 C 182.609375 192.03125 180.835938 193.597656 180.835938 195.625 L 180.835938 196.433594 C 180.835938 198.167969 182.144531 199.617188 183.867188 199.792969 C 189.398438 200.359375 195.34375 200.78125 201.652344 200.980469 C 202.417969 201.003906 202.976562 200.261719 202.734375 199.535156 L 201.019531 194.371094 " fill-opacity="1" fill-rule="nonzero"/><g clip-path="url(#b7d25194d8)"><path fill="#1565c0" d="M 243.609375 195.707031 C 243.609375 195.683594 243.605469 195.660156 243.605469 195.636719 C 243.511719 193.691406 241.792969 192.222656 239.855469 192.445312 C 236.324219 192.847656 232.613281 193.191406 228.738281 193.449219 C 228.253906 193.480469 227.84375 193.828125 227.738281 194.304688 L 226.664062 199.125 C 226.503906 199.84375 227.082031 200.511719 227.816406 200.460938 C 232.304688 200.140625 236.589844 199.714844 240.648438 199.21875 C 242.40625 199.003906 243.695312 197.472656 243.609375 195.707031 " fill-opacity="1" fill-rule="nonzero"/></g><path fill="#1565c0" d="M 228.980469 149.558594 L 195.265625 165.441406 C 195.265625 165.441406 206.289062 161.226562 228.980469 149.558594 " fill-opacity="1" fill-rule="nonzero"/><path fill="#1565c0" d="M 190.195312 165.441406 C 190.195312 165.441406 201.21875 161.226562 223.910156 149.558594 L 190.195312 165.441406 " fill-opacity="1" fill-rule="nonzero"/></svg>