<svg xmlns="http://www.w3.org/2000/svg" xmlns:xlink="http://www.w3.org/1999/xlink" width="500" zoomAndPan="magnify" viewBox="0 0 375 374.999991" height="500" preserveAspectRatio="xMidYMid meet" version="1.0"><defs><g/><clipPath id="c6335c95e4"><rect x="0" width="258" y="0" height="47"/></clipPath><clipPath id="30b72841c8"><path d="M 134.980469 152 L 356 152 L 356 215.3125 L 134.980469 215.3125 Z M 134.980469 152 " clip-rule="nonzero"/></clipPath><clipPath id="09b60675ed"><path d="M 67 0.398438 L 221 0.398438 L 221 59 L 67 59 Z M 67 0.398438 " clip-rule="nonzero"/></clipPath><clipPath id="45f71dd476"><path d="M 1.105469 7.179688 L 154.757812 7.179688 L 154.757812 56 L 1.105469 56 Z M 1.105469 7.179688 " clip-rule="nonzero"/></clipPath><clipPath id="031e086bbf"><path d="M 79.945312 3.734375 L 208.601562 3.734375 L 208.601562 62.957031 L 79.945312 62.957031 Z M 79.945312 3.734375 " clip-rule="nonzero"/></clipPath><clipPath id="2cbf3a8b75"><rect x="0" width="222" y="0" height="64"/></clipPath></defs><g transform="matrix(1, 0, 0, 1, 15, 169)"><g clip-path="url(#c6335c95e4)"><g fill="#1565c0" fill-opacity="1"><g transform="translate(0.833337, 35.62045)"><g><path d="M 22.65625 0 L 2.203125 0 L 2.203125 -25.796875 L 22.65625 -25.796875 L 22.65625 -20.625 L 8.84375 -20.625 L 8.84375 -15.65625 L 19.71875 -15.65625 L 19.71875 -10.5 L 8.84375 -10.5 L 8.84375 -5.15625 L 22.65625 -5.15625 Z M 22.65625 0 "/></g></g></g><g fill="#1565c0" fill-opacity="1"><g transform="translate(24.224004, 35.62045)"><g><path d="M 13.265625 -19.53125 L 20.453125 -19.53125 L 14.546875 -9.765625 L 20.625 0 L 13.453125 0 L 10.125 -5.890625 L 6.8125 0 L -0.375 0 L 5.703125 -9.765625 L -0.1875 -19.53125 L 7 -19.53125 L 10.125 -13.625 Z M 13.265625 -19.53125 "/></g></g></g><g fill="#1565c0" fill-opacity="1"><g transform="translate(44.48364, 35.62045)"><g><path d="M 12.71875 -14.546875 C 11.414062 -14.546875 9.941406 -14.300781 8.296875 -13.8125 L 8.296875 -4.96875 L 13.8125 -4.96875 C 14.800781 -4.96875 15.296875 -5.460938 15.296875 -6.453125 L 15.296875 -13.265625 C 15.296875 -13.628906 15.171875 -13.929688 14.921875 -14.171875 C 14.671875 -14.421875 14.363281 -14.546875 14 -14.546875 Z M 8.296875 0 L 8.296875 6.265625 L 1.84375 6.265625 L 1.84375 -19.53125 L 7.546875 -19.53125 L 7.921875 -17.6875 C 9.078125 -18.445312 10.257812 -19.003906 11.46875 -19.359375 C 12.6875 -19.710938 13.710938 -19.890625 14.546875 -19.890625 L 16.21875 -19.890625 C 17.882812 -19.890625 19.21875 -19.382812 20.21875 -18.375 C 21.226562 -17.375 21.734375 -16.039062 21.734375 -14.375 L 21.734375 -5.890625 C 21.734375 -4.046875 21.210938 -2.601562 20.171875 -1.5625 C 19.128906 -0.519531 17.6875 0 15.84375 0 Z M 8.296875 0 "/></g></g></g><g fill="#1565c0" fill-opacity="1"><g transform="translate(67.690131, 35.62045)"><g><path d="M 13.078125 -14.1875 C 11.535156 -14.1875 9.941406 -13.816406 8.296875 -13.078125 L 8.296875 0 L 1.84375 0 L 1.84375 -19.53125 L 7.546875 -19.53125 L 7.921875 -17.125 C 10.035156 -18.96875 12.242188 -19.890625 14.546875 -19.890625 L 16.21875 -19.890625 L 16.21875 -14.1875 Z M 13.078125 -14.1875 "/></g></g></g><g fill="#1565c0" fill-opacity="1"><g transform="translate(84.634545, 35.62045)"><g><path d="M 9.390625 -15.296875 C 8.410156 -15.296875 7.921875 -14.800781 7.921875 -13.8125 L 7.921875 -11.796875 L 14.1875 -11.796875 L 14.1875 -13.8125 C 14.1875 -14.800781 13.695312 -15.296875 12.71875 -15.296875 Z M 19.890625 -0.375 C 15.148438 0.125 10.851562 0.375 7 0.375 C 5.332031 0.375 3.992188 -0.128906 2.984375 -1.140625 C 1.972656 -2.148438 1.46875 -3.488281 1.46875 -5.15625 L 1.46875 -14 C 1.46875 -15.84375 1.988281 -17.285156 3.03125 -18.328125 C 4.082031 -19.367188 5.53125 -19.890625 7.375 -19.890625 L 14.734375 -19.890625 C 16.578125 -19.890625 18.019531 -19.367188 19.0625 -18.328125 C 20.101562 -17.285156 20.625 -15.84375 20.625 -14 L 20.625 -7.1875 L 7.921875 -7.1875 L 7.921875 -5.703125 C 7.921875 -5.335938 8.039062 -5.03125 8.28125 -4.78125 C 8.53125 -4.539062 8.84375 -4.421875 9.21875 -4.421875 C 11.644531 -4.421875 15.203125 -4.601562 19.890625 -4.96875 Z M 19.890625 -0.375 "/></g></g></g><g fill="#1565c0" fill-opacity="1"><g transform="translate(106.735968, 35.62045)"><g><path d="M 1.109375 -5.15625 C 6.085938 -4.789062 10.015625 -4.609375 12.890625 -4.609375 C 13.265625 -4.609375 13.570312 -4.726562 13.8125 -4.96875 C 14.0625 -5.21875 14.1875 -5.523438 14.1875 -5.890625 L 14.1875 -7.1875 L 6.265625 -7.1875 C 4.597656 -7.1875 3.257812 -7.6875 2.25 -8.6875 C 1.238281 -9.695312 0.734375 -11.039062 0.734375 -12.71875 L 0.734375 -14 C 0.734375 -15.664062 1.238281 -17.003906 2.25 -18.015625 C 3.257812 -19.023438 4.597656 -19.53125 6.265625 -19.53125 L 18.796875 -19.53125 L 18.796875 -14.734375 L 8.46875 -14.734375 C 8.101562 -14.734375 7.796875 -14.609375 7.546875 -14.359375 C 7.304688 -14.117188 7.1875 -13.816406 7.1875 -13.453125 C 7.1875 -13.078125 7.304688 -12.765625 7.546875 -12.515625 C 7.796875 -12.273438 8.101562 -12.15625 8.46875 -12.15625 L 15.109375 -12.15625 C 16.773438 -12.15625 18.109375 -11.648438 19.109375 -10.640625 C 20.117188 -9.640625 20.625 -8.300781 20.625 -6.625 L 20.625 -5.15625 C 20.625 -3.488281 20.117188 -2.148438 19.109375 -1.140625 C 18.109375 -0.128906 16.773438 0.375 15.109375 0.375 C 10.753906 0.375 6.085938 0.125 1.109375 -0.375 Z M 1.109375 -5.15625 "/></g></g></g><g fill="#1565c0" fill-opacity="1"><g transform="translate(128.100673, 35.62045)"><g><path d="M 1.109375 -5.15625 C 6.085938 -4.789062 10.015625 -4.609375 12.890625 -4.609375 C 13.265625 -4.609375 13.570312 -4.726562 13.8125 -4.96875 C 14.0625 -5.21875 14.1875 -5.523438 14.1875 -5.890625 L 14.1875 -7.1875 L 6.265625 -7.1875 C 4.597656 -7.1875 3.257812 -7.6875 2.25 -8.6875 C 1.238281 -9.695312 0.734375 -11.039062 0.734375 -12.71875 L 0.734375 -14 C 0.734375 -15.664062 1.238281 -17.003906 2.25 -18.015625 C 3.257812 -19.023438 4.597656 -19.53125 6.265625 -19.53125 L 18.796875 -19.53125 L 18.796875 -14.734375 L 8.46875 -14.734375 C 8.101562 -14.734375 7.796875 -14.609375 7.546875 -14.359375 C 7.304688 -14.117188 7.1875 -13.816406 7.1875 -13.453125 C 7.1875 -13.078125 7.304688 -12.765625 7.546875 -12.515625 C 7.796875 -12.273438 8.101562 -12.15625 8.46875 -12.15625 L 15.109375 -12.15625 C 16.773438 -12.15625 18.109375 -11.648438 19.109375 -10.640625 C 20.117188 -9.640625 20.625 -8.300781 20.625 -6.625 L 20.625 -5.15625 C 20.625 -3.488281 20.117188 -2.148438 19.109375 -1.140625 C 18.109375 -0.128906 16.773438 0.375 15.109375 0.375 C 10.753906 0.375 6.085938 0.125 1.109375 -0.375 Z M 1.109375 -5.15625 "/></g></g></g><g fill="#1565c0" fill-opacity="1"><g transform="translate(149.465378, 35.62045)"><g><path d="M 21.734375 -5.53125 C 21.734375 -3.6875 21.210938 -2.238281 20.171875 -1.1875 C 19.128906 -0.144531 17.6875 0.375 15.84375 0.375 L 7.375 0.375 C 5.53125 0.375 4.082031 -0.144531 3.03125 -1.1875 C 1.988281 -2.238281 1.46875 -3.6875 1.46875 -5.53125 L 1.46875 -14 C 1.46875 -15.84375 1.988281 -17.285156 3.03125 -18.328125 C 4.082031 -19.367188 5.53125 -19.890625 7.375 -19.890625 L 15.84375 -19.890625 C 17.6875 -19.890625 19.128906 -19.367188 20.171875 -18.328125 C 21.210938 -17.285156 21.734375 -15.84375 21.734375 -14 Z M 15.296875 -13.453125 C 15.296875 -14.429688 14.800781 -14.921875 13.8125 -14.921875 L 9.390625 -14.921875 C 8.410156 -14.921875 7.921875 -14.429688 7.921875 -13.453125 L 7.921875 -6.078125 C 7.921875 -5.097656 8.410156 -4.609375 9.390625 -4.609375 L 13.8125 -4.609375 C 14.800781 -4.609375 15.296875 -5.097656 15.296875 -6.078125 Z M 15.296875 -13.453125 "/></g></g></g><g fill="#1565c0" fill-opacity="1"><g transform="translate(172.671869, 35.62045)"><g><path d="M 18.796875 -25.796875 L 25.421875 -25.796875 L 25.421875 -7 C 25.421875 -4.414062 24.835938 -2.539062 23.671875 -1.375 C 22.503906 -0.207031 20.628906 0.375 18.046875 0.375 L 9.578125 0.375 C 6.992188 0.375 5.117188 -0.207031 3.953125 -1.375 C 2.785156 -2.539062 2.203125 -4.414062 2.203125 -7 L 2.203125 -25.796875 L 8.84375 -25.796875 L 8.84375 -7 C 8.84375 -5.53125 9.578125 -4.796875 11.046875 -4.796875 L 16.578125 -4.796875 C 18.054688 -4.796875 18.796875 -5.53125 18.796875 -7 Z M 18.796875 -25.796875 "/></g></g></g><g fill="#1565c0" fill-opacity="1"><g transform="translate(200.298635, 35.62045)"><g><path d="M 12.71875 -14.546875 C 11.414062 -14.546875 9.941406 -14.300781 8.296875 -13.8125 L 8.296875 0 L 1.84375 0 L 1.84375 -19.53125 L 7.546875 -19.53125 L 7.921875 -17.6875 C 9.078125 -18.445312 10.257812 -19.003906 11.46875 -19.359375 C 12.6875 -19.710938 13.710938 -19.890625 14.546875 -19.890625 L 16.21875 -19.890625 C 17.882812 -19.890625 19.21875 -19.382812 20.21875 -18.375 C 21.226562 -17.375 21.734375 -16.039062 21.734375 -14.375 L 21.734375 0 L 15.296875 0 L 15.296875 -13.265625 C 15.296875 -13.628906 15.171875 -13.929688 14.921875 -14.171875 C 14.671875 -14.421875 14.363281 -14.546875 14 -14.546875 Z M 12.71875 -14.546875 "/></g></g></g><g fill="#1565c0" fill-opacity="1"><g transform="translate(223.505126, 35.62045)"><g><path d="M 9.953125 -18.796875 L 9.953125 0 L 3.5 0 L 3.5 -13.8125 L 0.734375 -13.8125 L 0.734375 -18.796875 Z M 3.5 -26.15625 L 9.953125 -26.15625 L 9.953125 -21 L 3.5 -21 Z M 3.5 -26.15625 "/></g></g></g><g fill="#1565c0" fill-opacity="1"><g transform="translate(235.292548, 35.62045)"><g><path d="M 13.265625 -19.53125 L 20.453125 -19.53125 L 14.546875 -9.765625 L 20.625 0 L 13.453125 0 L 10.125 -5.890625 L 6.8125 0 L -0.375 0 L 5.703125 -9.765625 L -0.1875 -19.53125 L 7 -19.53125 L 10.125 -13.625 Z M 13.265625 -19.53125 "/></g></g></g></g></g><g clip-path="url(#30b72841c8)"><g transform="matrix(1, 0, 0, 1, 134, 152)"><g clip-path="url(#2cbf3a8b75)"><g clip-path="url(#09b60675ed)"><path fill="#1565c0" d="M 67.902344 2.519531 C 132.144531 -5.21875 247.886719 18.246094 210.84375 58.53125 C 256.71875 16.765625 132.988281 -6.449219 67.902344 2.519531 " fill-opacity="1" fill-rule="evenodd"/></g><path fill="#1565c0" d="M 62.273438 3.832031 C 126.421875 -3.257812 241.605469 20.136719 204.605469 60.097656 C 250.421875 18.746094 127.261719 -4.480469 62.273438 3.832031 " fill-opacity="1" fill-rule="evenodd"/><path fill="#1565c0" d="M 7.609375 10.003906 C 77.019531 -1.949219 194.429688 12.457031 147.089844 53.761719 C 204.058594 10.414062 78.160156 -3.191406 7.609375 10.003906 " fill-opacity="1" fill-rule="evenodd"/><g clip-path="url(#45f71dd476)"><path fill="#1565c0" d="M 1.105469 11.898438 C 70.386719 0.53125 187.421875 14.78125 140.15625 55.75 C 197.035156 12.820312 71.527344 -0.703125 1.105469 11.898438 " fill-opacity="1" fill-rule="evenodd"/></g><g clip-path="url(#031e086bbf)"><path fill="#1565c0" d="M 208.085938 46.9375 C 210.789062 37.988281 202.28125 29.890625 194.882812 25.582031 C 182.503906 18.371094 162.761719 12.414062 142.292969 8.683594 C 119.089844 4.453125 94.976562 2.988281 79.953125 4.09375 C 110.761719 6.253906 159.296875 10.941406 163.035156 30.21875 C 165.132812 41.027344 157.914062 51.699219 135.625 59.96875 C 152.367188 63.757812 165.992188 62.4375 174.242188 54.984375 C 175.976562 53.414062 177.457031 51.882812 178.691406 50.398438 L 185.488281 51.875 C 183.070312 55.335938 179.5 59.023438 174.554688 62.957031 C 191.132812 62.175781 204.796875 57.824219 208.085938 46.9375 Z M 174.199219 22.15625 L 169.027344 21.234375 C 158.128906 15.40625 142.675781 11.128906 127.910156 8.136719 C 142.449219 10.640625 161.21875 15.121094 174.199219 22.15625 Z M 172.492188 23.238281 L 177.609375 24.148438 C 180.191406 25.785156 182.457031 27.546875 184.300781 29.441406 L 178.90625 28.269531 C 177.160156 26.488281 174.992188 24.816406 172.492188 23.238281 Z M 180.785156 30.453125 L 186.183594 31.621094 C 187.957031 33.960938 189.09375 36.480469 189.417969 39.199219 L 183.734375 37.96875 C 183.578125 35.285156 182.535156 32.785156 180.785156 30.453125 Z M 183.664062 40.214844 L 189.5 41.480469 C 189.398438 43.753906 188.738281 46.152344 187.4375 48.683594 L 180.96875 47.277344 C 182.527344 44.804688 183.394531 42.449219 183.664062 40.214844 " fill-opacity="1" fill-rule="evenodd"/></g></g></g></g></svg>